# xmcd CD database file
#
# Track frame offsets:
#	150
#	17876
#	40456
#	58092
#
# Disc length: 1067 seconds
#
# Revision: 0
# Processed by: cddbd v1.5.1PL0 Copyright (c) Steve Scherf et al.
# Submitted via: CDex 1.51
#
DISCID=32042904
DTITLE=Gackt - ありったけの愛で
DYEAR=2005
DGENRE=J-Pop
TTITLE0=ありったけの愛で
TTITLE1=この夜が終わる前に
TTITLE2=ありったけの愛で(Inst.)
TTITLE3=この夜が終わる前に(Inst.)
EXTD=YEAR: 2005
EXTT0=
EXTT1=
EXTT2=
EXTT3=
PLAYORDER=
